# xmcd
#
# Track frame offsets: 
#        225
#        11754
#        25144
#        31179
#        42961
#        54733
#        62781
#        72895
#        81826
#        91053
#        106018
#        116944
#        129580
#        138525
#        150334
#        159633
#        167514
#        178351
#
# Disc length: 2560 seconds
#
# Revision: 0
# Processed by: cddbd v1.5PL3 Copyright (c) Steve Scherf et al.
# Submitted via: ExactAudioCopy v0.95a4
#
DISCID=ed09fd12
DTITLE=Ron Thompson - Just Pickin'
DYEAR=2003
DGENRE=Blues
TTITLE0=Bullet Blues
TTITLE1=Gangster Blues
TTITLE2=Rockin' And Rollin' Blues
TTITLE3=Funky G. Street
TTITLE4=Shakin' And Shoutin'
TTITLE5=Texas Special
TTITLE6=Sweet Mama
TTITLE7=E. Street Boogie
TTITLE8=Just Pickin'
TTITLE9=Feeling The Blues
TTITLE10=Goin' To Church
TTITLE11=Barbecue Blues
TTITLE12=Please Be Cool
TTITLE13=Southshore Boogie
TTITLE14=Switchblade Blues
TTITLE15=Blues Blues
TTITLE16=J. T. Shuffle
TTITLE17=S. G. Blues
EXTD=
EXTT0=
EXTT1=
EXTT2=
EXTT3=
EXTT4=
EXTT5=
EXTT6=
EXTT7=
EXTT8=
EXTT9=
EXTT10=
EXTT11=
EXTT12=
EXTT13=
EXTT14=
EXTT15=
EXTT16=
EXTT17=
PLAYORDER=
